<svg width="102" height="17" viewBox="0 0 102 17" fill="none" xmlns="http://www.w3.org/2000/svg">
<path fill-rule="evenodd" clip-rule="evenodd" d="M88.0619 15.1974V16.5789H99.1145V15.1974H94.279V9.57895L101.878 1.38158V0H85.2987V1.38158L92.8974 9.57895V15.1974H88.0619ZM98.1704 3.33882H89.006L87.0948 1.47368H100.082L98.1704 3.33882ZM96.904 4.72039L93.5882 8.3125L90.2724 4.72039H96.904ZM4.97363 16.5H6.7998V2.41699H11.7734V0.794922H0V2.41699H4.97363V16.5ZM26.1151 16.5H27.9413V0.794922H26.1151V7.47656H17.8436V0.794922H16.0175V16.5H17.8436V9.10938H26.1151V16.5ZM34.1297 0.794922V16.5H35.9558V0.794922H34.1297ZM43.9704 16.5V9.96875H47.2467L51.0495 16.5H53.2086L48.944 9.44238C51.0495 8.71191 52.1022 7.30827 52.1022 5.23145C52.1022 3.74902 51.6403 2.639 50.7164 1.90137C49.7998 1.16374 48.3782 0.794922 46.4518 0.794922H42.1442V16.5H43.9704ZM46.4733 8.40039H43.9704V2.39551H46.3444C47.6979 2.39551 48.679 2.62467 49.2877 3.08301C49.9036 3.54134 50.2116 4.28971 50.2116 5.32812C50.2116 6.35221 49.9108 7.12207 49.3092 7.6377C48.7077 8.14616 47.7623 8.40039 46.4733 8.40039ZM64.9722 15.5547C65.9748 14.7812 66.4761 13.7035 66.4761 12.3213C66.4761 11.2471 66.1646 10.3734 65.5415 9.7002C64.9256 9.02702 63.7941 8.39681 62.147 7.80957C61.1659 7.45866 60.4354 7.13997 59.9556 6.85352C59.4829 6.5599 59.1463 6.24121 58.9458 5.89746C58.7453 5.54655 58.645 5.09896 58.645 4.55469C58.645 3.81706 58.9172 3.24056 59.4614 2.8252C60.0057 2.40983 60.7612 2.20215 61.728 2.20215C62.9527 2.20215 64.2131 2.47428 65.5093 3.01855L66.0786 1.42871C64.7681 0.855794 63.3322 0.569336 61.771 0.569336C60.2743 0.569336 59.0711 0.927409 58.1616 1.64355C57.2521 2.3597 56.7974 3.32292 56.7974 4.5332C56.7974 5.6862 57.1089 6.62077 57.732 7.33691C58.3622 8.05306 59.4077 8.67253 60.8687 9.19531C61.9142 9.56771 62.6913 9.90072 63.1997 10.1943C63.7154 10.488 64.0806 10.8102 64.2954 11.1611C64.5174 11.5049 64.6284 11.9489 64.6284 12.4932C64.6284 13.3167 64.3205 13.9613 63.7046 14.4268C63.0887 14.8851 62.1721 15.1143 60.9546 15.1143C60.2098 15.1143 59.4579 15.0355 58.6987 14.8779C57.9396 14.7204 57.2378 14.5055 56.5933 14.2334V15.9951C57.5959 16.4749 59.0282 16.7148 60.8902 16.7148C62.6089 16.7148 63.9696 16.3281 64.9722 15.5547ZM74.5658 16.5H76.392V2.41699H81.3656V0.794922H69.5922V2.41699H74.5658V16.5Z" fill="#2AB0CD"/>
</svg>
